<svg width="25" height="30" viewBox="0 0 25 30" fill="none" xmlns="http://www.w3.org/2000/svg">
<path fill-rule="evenodd" clip-rule="evenodd" d="M13.2108 29.8238C15.8589 28.4459 25 21.5253 25 12.5394C25 5.61407 19.4036 0 12.5 0C5.59644 0 0 5.61407 0 12.5394C0 21.5253 9.14112 28.4459 11.7892 29.8238C12.2408 30.0587 12.7592 30.0587 13.2108 29.8238ZM12.5 17.9134C15.4587 17.9134 17.8571 15.5074 17.8571 12.5394C17.8571 9.57139 15.4587 7.16536 12.5 7.16536C9.54133 7.16536 7.14286 9.57139 7.14286 12.5394C7.14286 15.5074 9.54133 17.9134 12.5 17.9134Z" fill="white"/>
</svg>
