<svg width="30" height="30" viewBox="0 0 30 30" fill="none" xmlns="http://www.w3.org/2000/svg">
<path d="M3.16394 1.6314L4.26804 0.527306C4.97111 -0.175768 6.11102 -0.175769 6.81409 0.527305L11.4694 5.18258C12.1724 5.88566 12.1724 7.02556 11.4694 7.72864L8.24243 10.9556C7.70434 11.4937 7.57094 12.3157 7.91126 12.9963C9.87859 16.931 13.069 20.1214 17.0037 22.0887C17.6843 22.4291 18.5063 22.2957 19.0444 21.7576L22.2714 18.5306C22.9744 17.8276 24.1143 17.8276 24.8174 18.5306L29.4727 23.1859C30.1758 23.889 30.1758 25.0289 29.4727 25.732L28.3686 26.8361C24.5675 30.6372 18.5497 31.0649 14.2492 27.8395L12.0737 26.2078C8.93476 23.8536 6.14637 21.0652 3.79217 17.9263L2.16051 15.7508C-1.06486 11.4503 -0.637194 5.43254 3.16394 1.6314Z" fill="white"/>
</svg>
